<svg xmlns="http://www.w3.org/2000/svg" viewBox="0 0 3000 560.76">
  <mask id="mask">
    <g fill="white">
      <path d="M554.85,223.83l-151.08-11a39,39,0,0,1-33.39-24.19l-57.58-140a19.58,19.58,0,0,0-36.29,0l-57.58,140a39,39,0,0,1-33.39,24.19L34.72,223.7c-12.1.63-16.26,10.34-17.26,13.23A19.1,19.1,0,0,0,23.13,258l116.29,96.13a39.35,39.35,0,0,1,13.11,39.44L116.87,539.46c-2.27,7.94.25,13.36,2.65,16.51,5.79,7.56,16.75,9.95,24.94,4.53L272.35,481A38.63,38.63,0,0,1,293,475.07a39.23,39.23,0,0,1,20.54,5.8l129.15,79.38a17.57,17.57,0,0,0,10.08,3.4,18.55,18.55,0,0,0,14.11-7.18,19.89,19.89,0,0,0,3.78-17.26L435,393.68A39.27,39.27,0,0,1,448.25,354L566.31,257.6c8.82-7.69,6.3-17.89,5.55-20.54C570.85,234.16,566.69,224.46,554.85,223.83Z" transform="translate(0 -19.62)"/>
      <path d="M2363.19,223.83l-151.07-11a39,39,0,0,1-33.39-24.19l-57.59-140a19.57,19.57,0,0,0-36.28,0l-57.59,140a39,39,0,0,1-33.39,24.19L1843.06,223.7c-12.09.63-16.25,10.34-17.26,13.23a19.1,19.1,0,0,0,5.67,21.05l116.3,96.13a39.37,39.37,0,0,1,13.1,39.44l-35.66,145.91c-2.26,7.94.26,13.36,2.65,16.51,5.8,7.56,16.76,9.95,25,4.53L2080.7,481a38.58,38.58,0,0,1,20.66-5.93,39.21,39.21,0,0,1,20.54,5.8l129.15,79.38a17.59,17.59,0,0,0,10.08,3.4,18.55,18.55,0,0,0,14.11-7.18,19.89,19.89,0,0,0,3.78-17.26l-35.66-145.53A39.27,39.27,0,0,1,2256.59,354l118.07-96.39c8.82-7.69,6.3-17.89,5.54-20.54C2379.19,234.16,2375,224.46,2363.19,223.83Z" transform="translate(0 -19.62)"/>
      <path d="M1760.41,223.83l-151.07-11A39,39,0,0,1,1576,188.68l-57.59-140a19.58,19.58,0,0,0-36.29,0l-57.58,140a39,39,0,0,1-33.39,24.19L1240.28,223.7c-12.1.63-16.25,10.34-17.26,13.23a19.1,19.1,0,0,0,5.67,21.05L1345,354.11a39.37,39.37,0,0,1,13.1,39.44l-35.66,145.91c-2.27,7.94.25,13.36,2.65,16.51,5.8,7.56,16.76,9.95,25,4.53L1477.92,481a38.58,38.58,0,0,1,20.66-5.93,39.21,39.21,0,0,1,20.54,5.8l129.15,79.38a17.59,17.59,0,0,0,10.08,3.4,18.55,18.55,0,0,0,14.11-7.18,19.89,19.89,0,0,0,3.78-17.26l-35.66-145.53A39.27,39.27,0,0,1,1653.81,354l118.07-96.39c8.82-7.69,6.3-17.89,5.54-20.54C1776.41,234.16,1772.25,224.46,1760.41,223.83Z" transform="translate(0 -19.62)"/>
      <path d="M1157.63,223.83l-151.08-11a39.05,39.05,0,0,1-33.39-24.19l-57.58-140a19.58,19.58,0,0,0-36.29,0l-57.58,140a39,39,0,0,1-33.39,24.19L637.5,223.7c-12.1.63-16.25,10.34-17.26,13.23A19.1,19.1,0,0,0,625.91,258l116.3,96.13a39.37,39.37,0,0,1,13.1,39.44L719.65,539.46c-2.27,7.94.25,13.36,2.65,16.51,5.79,7.56,16.76,9.95,25,4.53L875.14,481a38.58,38.58,0,0,1,20.66-5.93,39.23,39.23,0,0,1,20.54,5.8l129.15,79.38a17.59,17.59,0,0,0,10.08,3.4,18.55,18.55,0,0,0,14.11-7.18,19.89,19.89,0,0,0,3.78-17.26L1037.8,393.68A39.27,39.27,0,0,1,1051,354l118.06-96.39c8.82-7.69,6.3-17.89,5.55-20.54C1173.63,234.16,1169.47,224.46,1157.63,223.83Z" transform="translate(0 -19.62)"/>
      <path d="M2966,223.83l-151.07-11a39,39,0,0,1-33.39-24.19l-57.58-140a19.58,19.58,0,0,0-36.29,0l-57.58,140a39.05,39.05,0,0,1-33.39,24.19L2445.84,223.7c-12.09.63-16.25,10.34-17.26,13.23a19.1,19.1,0,0,0,5.67,21.05l116.3,96.13a39.35,39.35,0,0,1,13.1,39.44L2528,539.46c-2.27,7.94.25,13.36,2.64,16.51,5.8,7.56,16.76,9.95,25,4.53L2683.48,481a38.6,38.6,0,0,1,20.66-5.93,39.21,39.21,0,0,1,20.54,5.8l129.15,79.38a17.62,17.62,0,0,0,10.08,3.4,18.53,18.53,0,0,0,14.11-7.18,19.89,19.89,0,0,0,3.78-17.26l-35.65-145.53A39.23,39.23,0,0,1,2859.38,354l118.06-96.39c8.82-7.69,6.3-17.89,5.54-20.54C2982,234.16,2977.82,224.46,2966,223.83Z" transform="translate(0 -19.62)"/>
    </g>
  </mask>
  <g>
    <path d="M544.13,197.82,400.49,187.5a7.7,7.7,0,0,1-6.72-4.92L339.05,49.38a47.34,47.34,0,0,0-44.52-29.76C274.61,19.62,257.69,31,250,49.5L195.17,182.82a8,8,0,0,1-6.72,4.92L45.05,198.06A47.41,47.41,0,0,0,2.69,230.58a47,47,0,0,0,14.28,52l111,91.68a8,8,0,0,1,2.64,7.92L96.77,520.62a46.8,46.8,0,0,0,7.56,40.92,47.86,47.86,0,0,0,37.8,18.84,45.59,45.59,0,0,0,25.32-7.68l121.32-75.48a7.91,7.91,0,0,1,8.28,0l122.52,75.24a45.86,45.86,0,0,0,25.56,7.92,47.07,47.07,0,0,0,36.36-17.76c9.24-11.52,12.6-26.52,9.24-41.52l-34-138.84a8.09,8.09,0,0,1,2.64-8L572.09,282.3c15.12-13,20.52-32.88,14.16-51.84A47.36,47.36,0,0,0,544.13,197.82Zm9.24,61.8-112.44,91.8a37.39,37.39,0,0,0-12.6,37.8l34,138.6a19,19,0,0,1-3.6,16.44,17.67,17.67,0,0,1-13.44,6.84,16.74,16.74,0,0,1-9.6-3.24l-123-75.6a37.34,37.34,0,0,0-19.56-5.52,36.79,36.79,0,0,0-19.68,5.64L151.61,548.1c-7.8,5.16-18.24,2.88-23.76-4.32-2.28-3-4.68-8.16-2.52-15.72l34-139a37.49,37.49,0,0,0-12.48-37.56L36.05,260a18.19,18.19,0,0,1-5.4-20c1-2.76,4.92-12,16.44-12.6L190.73,217a37.18,37.18,0,0,0,31.8-23L277.37,60.66a18.65,18.65,0,0,1,34.56,0L366.77,194a37.18,37.18,0,0,0,31.8,23l143.88,10.44c11.28.6,15.24,9.84,16.2,12.6C559.37,242.58,561.77,252.3,553.37,259.62Z" transform="translate(0 -19.62)"/>
    <path d="M2352.48,197.82,2208.84,187.5a7.7,7.7,0,0,1-6.72-4.92L2147.4,49.38a47.34,47.34,0,0,0-44.52-29.76C2083,19.62,2066,31,2058.36,49.5l-54.84,133.32a8,8,0,0,1-6.72,4.92l-143.4,10.32a48.06,48.06,0,0,0-28.08,84.48l111,91.68a8,8,0,0,1,2.64,7.92l-33.84,138.48a46.8,46.8,0,0,0,7.56,40.92,47.86,47.86,0,0,0,37.8,18.84,45.59,45.59,0,0,0,25.32-7.68l121.32-75.48a7.91,7.91,0,0,1,8.28,0l122.52,75.24a45.86,45.86,0,0,0,25.56,7.92,47.07,47.07,0,0,0,36.36-17.76c9.24-11.52,12.6-26.52,9.24-41.52l-34-138.84a8.09,8.09,0,0,1,2.64-8l112.68-91.92c15.12-13,20.52-32.88,14.16-51.84A47.36,47.36,0,0,0,2352.48,197.82Zm9.24,61.8-112.44,91.8a37.39,37.39,0,0,0-12.6,37.8l34,138.6a19,19,0,0,1-3.6,16.44,17.67,17.67,0,0,1-13.44,6.84,16.74,16.74,0,0,1-9.6-3.24l-123-75.6a37.34,37.34,0,0,0-19.56-5.52,36.79,36.79,0,0,0-19.68,5.64L1960,548.1c-7.8,5.16-18.24,2.88-23.76-4.32-2.28-3-4.68-8.16-2.52-15.72l34-139a37.49,37.49,0,0,0-12.48-37.56L1844.4,260a18.19,18.19,0,0,1-5.4-20c1-2.76,4.92-12,16.44-12.6L1999.08,217a37.18,37.18,0,0,0,31.8-23l54.84-133.32a18.65,18.65,0,0,1,34.56,0L2175.12,194a37.18,37.18,0,0,0,31.8,23l143.88,10.44c11.28.6,15.24,9.84,16.2,12.6C2367.72,242.58,2370.12,252.3,2361.72,259.62Z" transform="translate(0 -19.62)"/>
    <path d="M1749.69,197.82,1606.05,187.5a7.7,7.7,0,0,1-6.72-4.92l-54.72-133.2a47.34,47.34,0,0,0-44.52-29.76c-19.92,0-36.84,11.4-44.52,29.88l-54.84,133.32a8,8,0,0,1-6.72,4.92l-143.4,10.32a48.06,48.06,0,0,0-28.08,84.48l111,91.68a8,8,0,0,1,2.64,7.92l-33.84,138.48a46.8,46.8,0,0,0,7.56,40.92,47.86,47.86,0,0,0,37.8,18.84A45.59,45.59,0,0,0,1373,572.7l121.32-75.48a7.91,7.91,0,0,1,8.28,0l122.52,75.24a45.86,45.86,0,0,0,25.56,7.92,47.07,47.07,0,0,0,36.36-17.76c9.24-11.52,12.6-26.52,9.24-41.52l-34-138.84a8.09,8.09,0,0,1,2.64-8l112.68-91.92c15.12-13,20.52-32.88,14.16-51.84A47.36,47.36,0,0,0,1749.69,197.82Zm9.24,61.8-112.44,91.8a37.39,37.39,0,0,0-12.6,37.8l34,138.6a19,19,0,0,1-3.6,16.44,17.67,17.67,0,0,1-13.44,6.84,16.74,16.74,0,0,1-9.6-3.24l-123-75.6a37.34,37.34,0,0,0-19.56-5.52,36.79,36.79,0,0,0-19.68,5.64l-121.8,75.72c-7.8,5.16-18.24,2.88-23.76-4.32-2.28-3-4.68-8.16-2.52-15.72l34-139a37.49,37.49,0,0,0-12.48-37.56L1241.61,260a18.19,18.19,0,0,1-5.4-20c1-2.76,4.92-12,16.44-12.6L1396.29,217a37.18,37.18,0,0,0,31.8-23l54.84-133.32a18.65,18.65,0,0,1,34.56,0L1572.33,194a37.18,37.18,0,0,0,31.8,23L1748,227.46c11.28.6,15.24,9.84,16.2,12.6C1764.93,242.58,1767.33,252.3,1758.93,259.62Z" transform="translate(0 -19.62)"/>
    <path d="M1146.91,197.82,1003.27,187.5a7.7,7.7,0,0,1-6.72-4.92L941.83,49.38a47.34,47.34,0,0,0-44.52-29.76c-19.92,0-36.84,11.4-44.52,29.88L798,182.82a8,8,0,0,1-6.72,4.92l-143.4,10.32a48.06,48.06,0,0,0-28.08,84.48l111,91.68a8,8,0,0,1,2.64,7.92L699.55,520.62a46.8,46.8,0,0,0,7.56,40.92,47.86,47.86,0,0,0,37.8,18.84,45.59,45.59,0,0,0,25.32-7.68l121.32-75.48a7.91,7.91,0,0,1,8.28,0l122.52,75.24a45.86,45.86,0,0,0,25.56,7.92,47.07,47.07,0,0,0,36.36-17.76c9.24-11.52,12.6-26.52,9.24-41.52l-34-138.84a8.09,8.09,0,0,1,2.64-8l112.68-91.92c15.12-13,20.52-32.88,14.16-51.84A47.36,47.36,0,0,0,1146.91,197.82Zm9.24,61.8-112.44,91.8a37.39,37.39,0,0,0-12.6,37.8l34,138.6a19,19,0,0,1-3.6,16.44A17.67,17.67,0,0,1,1048,551.1a16.74,16.74,0,0,1-9.6-3.24l-123-75.6a37.34,37.34,0,0,0-19.56-5.52,36.79,36.79,0,0,0-19.68,5.64L754.39,548.1c-7.8,5.16-18.24,2.88-23.76-4.32-2.28-3-4.68-8.16-2.52-15.72l34-139a37.49,37.49,0,0,0-12.48-37.56L638.83,260a18.19,18.19,0,0,1-5.4-20c1-2.76,4.92-12,16.44-12.6L793.51,217a37.18,37.18,0,0,0,31.8-23L880.15,60.66a18.65,18.65,0,0,1,34.56,0L969.55,194a37.18,37.18,0,0,0,31.8,23l143.88,10.44c11.28.6,15.24,9.84,16.2,12.6C1162.15,242.58,1164.55,252.3,1156.15,259.62Z" transform="translate(0 -19.62)"/>
    <path d="M2955.26,197.82,2811.62,187.5a7.7,7.7,0,0,1-6.72-4.92l-54.72-133.2a47.34,47.34,0,0,0-44.52-29.76c-19.92,0-36.84,11.4-44.52,29.88L2606.3,182.82a8,8,0,0,1-6.72,4.92l-143.4,10.32a48.06,48.06,0,0,0-28.08,84.48l111,91.68a8,8,0,0,1,2.64,7.92L2507.9,520.62a46.8,46.8,0,0,0,7.56,40.92,47.86,47.86,0,0,0,37.8,18.84,45.59,45.59,0,0,0,25.32-7.68l121.32-75.48a7.91,7.91,0,0,1,8.28,0l122.52,75.24a45.86,45.86,0,0,0,25.56,7.92,47.07,47.07,0,0,0,36.36-17.76c9.24-11.52,12.6-26.52,9.24-41.52l-34-138.84a8.09,8.09,0,0,1,2.64-8l112.68-91.92c15.12-13,20.52-32.88,14.16-51.84A47.36,47.36,0,0,0,2955.26,197.82Zm9.24,61.8-112.44,91.8a37.39,37.39,0,0,0-12.6,37.8l34,138.6a19,19,0,0,1-3.6,16.44,17.67,17.67,0,0,1-13.44,6.84,16.74,16.74,0,0,1-9.6-3.24l-123-75.6a37.34,37.34,0,0,0-19.56-5.52,36.79,36.79,0,0,0-19.68,5.64l-121.8,75.72c-7.8,5.16-18.24,2.88-23.76-4.32-2.28-3-4.68-8.16-2.52-15.72l34-139a37.49,37.49,0,0,0-12.48-37.56L2447.18,260a18.19,18.19,0,0,1-5.4-20c1-2.76,4.92-12,16.44-12.6L2601.86,217a37.18,37.18,0,0,0,31.8-23L2688.5,60.66a18.65,18.65,0,0,1,34.56,0L2777.9,194a37.18,37.18,0,0,0,31.8,23l143.88,10.44c11.28.6,15.24,9.84,16.2,12.6C2970.5,242.58,2972.9,252.3,2964.5,259.62Z" transform="translate(0 -19.62)"/>
  </g>
  <rect mask="url(#mask)" width="100%" height="100%"/>
</svg>
